<?xml version="1.0" encoding="UTF-8"?>
<svg version="1.1" xmlns="http://www.w3.org/2000/svg" width="58" height="55">
<path d="M0 0 C19.14 0 38.28 0 58 0 C58 18.15 58 36.3 58 55 C38.86 55 19.72 55 0 55 C0 36.85 0 18.7 0 0 Z " fill="#FCFDFE" transform="translate(0,0)"/>
<path d="M0 0 C2.93714051 2.57895264 3.90382389 3.91801873 4.25 7.8125 C4.1675 8.534375 4.085 9.25625 4 10 C5.11375 9.95875 6.2275 9.9175 7.375 9.875 C11 10 11 10 13 12 C13.47965793 15.60428674 13.37038426 19.24241521 13.375 22.875 C13.39949219 23.88175781 13.42398438 24.88851563 13.44921875 25.92578125 C13.45501953 27.38177734 13.45501953 27.38177734 13.4609375 28.8671875 C13.46915527 29.75519043 13.47737305 30.64319336 13.48583984 31.55810547 C12.82161321 34.8965953 11.75137972 36.02059621 9 38 C4.85596992 38.72414473 0.73012512 38.61679319 -3.47216797 38.57641602 C-5.49483393 38.56253545 -7.51288011 38.59664196 -9.53515625 38.63476562 C-10.81261719 38.63283203 -12.09007812 38.63089844 -13.40625 38.62890625 C-14.57478516 38.62963135 -15.74332031 38.63035645 -16.94726562 38.63110352 C-20 38 -20 38 -22.38549805 35.78979492 C-24.138449 32.76076566 -24.48252413 31.19412339 -24.42578125 27.734375 C-24.41740234 26.76242188 -24.40902344 25.79046875 -24.40039062 24.7890625 C-24.35688477 23.28472656 -24.35688477 23.28472656 -24.3125 21.75 C-24.30283203 20.73164063 -24.29316406 19.71328125 -24.28320312 18.6640625 C-24.1682676 11.1682676 -24.1682676 11.1682676 -23 10 C-20.32941149 9.85884839 -17.67567762 9.95752893 -15 10 C-14.938125 8.9275 -14.87625 7.855 -14.8125 6.75 C-14 3 -14 3 -12 0.5 C-7.78813059 -1.6059347 -4.4539842 -1.43757326 0 0 Z " fill="#F6FCFD" transform="translate(33,6)"/>
<path d="M0 0 C2.93714051 2.57895264 3.90382389 3.91801873 4.25 7.8125 C4.1675 8.534375 4.085 9.25625 4 10 C5.11375 9.95875 6.2275 9.9175 7.375 9.875 C11 10 11 10 13 12 C13.47965793 15.60428674 13.37038426 19.24241521 13.375 22.875 C13.39949219 23.88175781 13.42398438 24.88851563 13.44921875 25.92578125 C13.45501953 27.38177734 13.45501953 27.38177734 13.4609375 28.8671875 C13.46915527 29.75519043 13.47737305 30.64319336 13.48583984 31.55810547 C12.82161321 34.8965953 11.75137972 36.02059621 9 38 C4.85596992 38.72414473 0.73012512 38.61679319 -3.47216797 38.57641602 C-5.49483393 38.56253545 -7.51288011 38.59664196 -9.53515625 38.63476562 C-10.81261719 38.63283203 -12.09007812 38.63089844 -13.40625 38.62890625 C-14.57478516 38.62963135 -15.74332031 38.63035645 -16.94726562 38.63110352 C-20 38 -20 38 -22.38549805 35.78979492 C-24.138449 32.76076566 -24.48252413 31.19412339 -24.42578125 27.734375 C-24.41740234 26.76242188 -24.40902344 25.79046875 -24.40039062 24.7890625 C-24.35688477 23.28472656 -24.35688477 23.28472656 -24.3125 21.75 C-24.30283203 20.73164063 -24.29316406 19.71328125 -24.28320312 18.6640625 C-24.1682676 11.1682676 -24.1682676 11.1682676 -23 10 C-20.32941149 9.85884839 -17.67567762 9.95752893 -15 10 C-14.938125 8.9275 -14.87625 7.855 -14.8125 6.75 C-14 3 -14 3 -12 0.5 C-7.78813059 -1.6059347 -4.4539842 -1.43757326 0 0 Z M-21 13 C-21.061875 16.42375 -21.12375 19.8475 -21.1875 23.375 C-21.21481201 24.45313965 -21.24212402 25.5312793 -21.27026367 26.64208984 C-21.27775635 27.48980957 -21.28524902 28.3375293 -21.29296875 29.2109375 C-21.3086792 30.08024902 -21.32438965 30.94956055 -21.34057617 31.84521484 C-21.22818604 32.55629395 -21.1157959 33.26737305 -21 34 C-17.53903844 36.3073077 -16.17058903 36.25694718 -12.08984375 36.265625 C-10.35831055 36.26949219 -10.35831055 36.26949219 -8.59179688 36.2734375 C-7.38587891 36.26570313 -6.17996094 36.25796875 -4.9375 36.25 C-3.12282227 36.26160156 -3.12282227 36.26160156 -1.27148438 36.2734375 C0.45811523 36.26957031 0.45811523 36.26957031 2.22265625 36.265625 C3.81219116 36.26224121 3.81219116 36.26224121 5.43383789 36.25878906 C8.16506649 36.25665936 8.16506649 36.25665936 10 34 C10.27741245 31.76964703 10.27741245 31.76964703 10.1953125 29.2109375 C10.19031738 28.36321777 10.18532227 27.51549805 10.18017578 26.64208984 C10.16196777 25.5639502 10.14375977 24.48581055 10.125 23.375 C10.08375 19.95125 10.0425 16.5275 10 13 C-0.23 13 -10.46 13 -21 13 Z " fill="#4682DD" transform="translate(33,6)"/>
<path d="M0 0 C8.58 0 17.16 0 26 0 C26.04125 3.42375 26.0825 6.8475 26.125 10.375 C26.14320801 11.45313965 26.16141602 12.5312793 26.18017578 13.64208984 C26.1851709 14.48980957 26.19016602 15.3375293 26.1953125 16.2109375 C26.20578613 17.08024902 26.21625977 17.94956055 26.22705078 18.84521484 C26 21 26 21 24 23 C21.41796875 23.25878906 21.41796875 23.25878906 18.1875 23.265625 C17.02992187 23.26820312 15.87234375 23.27078125 14.6796875 23.2734375 C13.46539063 23.26570313 12.25109375 23.25796875 11 23.25 C9.78570312 23.25773437 8.57140625 23.26546875 7.3203125 23.2734375 C5.58394531 23.26957031 5.58394531 23.26957031 3.8125 23.265625 C2.21341797 23.26224121 2.21341797 23.26224121 0.58203125 23.25878906 C-2 23 -2 23 -4 21 C5.03721311 20.05757182 13.92551747 19.88842849 23 20 C24.59412284 16.81175432 24.10174735 13.37103338 24.0625 9.875 C24.05798828 9.12089844 24.05347656 8.36679687 24.04882812 7.58984375 C24.03703499 5.72652873 24.01909942 3.86325445 24 2 C23.01 1.67 22.02 1.34 21 1 C20.9071875 2.5778125 20.9071875 2.5778125 20.8125 4.1875 C19.84307928 8.7363203 18.68004161 10.21952412 15 13 C11.28531588 14.26457332 9.54084542 14.18028181 5.8125 12.9375 C2.42895142 10.60661098 1.38326339 8.84239832 0 5 C0 3.35 0 1.7 0 0 Z " fill="#CFF0FE" transform="translate(17,19)"/>
<path d="M0 0 C6.75216486 0.02153801 13.41684776 0.48622698 20.13671875 1.1328125 C20.13671875 1.4628125 20.13671875 1.7928125 20.13671875 2.1328125 C13.53671875 2.1328125 6.93671875 2.1328125 0.13671875 2.1328125 C0.46671875 9.3928125 0.79671875 16.6528125 1.13671875 24.1328125 C3.42980838 25.27935732 4.93581531 25.33010367 7.48828125 25.44921875 C8.3390625 25.49111328 9.18984375 25.53300781 10.06640625 25.57617188 C10.95585937 25.61548828 11.8453125 25.65480469 12.76171875 25.6953125 C13.65890625 25.73849609 14.55609375 25.78167969 15.48046875 25.82617188 C17.69906158 25.93238111 19.91776755 26.03442444 22.13671875 26.1328125 C22.13671875 26.7928125 22.13671875 27.4528125 22.13671875 28.1328125 C18.72050087 28.27821203 15.30507884 28.36690975 11.88671875 28.4453125 C10.91863281 28.48720703 9.95054688 28.52910156 8.953125 28.57226562 C1.95461028 28.69292967 1.95461028 28.69292967 -1.515625 26.31640625 C-3.54853953 21.51401395 -3.32486966 17.03795835 -3.17578125 11.8828125 C-3.16611328 10.86445313 -3.15644531 9.84609375 -3.14648438 8.796875 C-3.01489406 0.21489811 -3.01489406 0.21489811 0 0 Z " fill="#4281E3" transform="translate(11.86328125,15.8671875)"/>
<path d="M0 0 C3.96 0 7.92 0 12 0 C12.29296875 6.0546875 12.29296875 6.0546875 12 8 C8.1496895 10.56687367 6.41430237 9.83288724 2 9 C0 3.375 0 3.375 0 0 Z " fill="#F5FBFD" transform="translate(21,20)"/>
<path d="M0 0 C2.4375 2.3125 2.4375 2.3125 4 5 C4 5.99 4 6.98 4 8 C-0.62 8 -5.24 8 -10 8 C-10 3 -10 3 -8.9375 1.1875 C-5.82867965 -0.71790602 -3.55240769 -0.49858354 0 0 Z " fill="#FCFCFD" transform="translate(31,8)"/>
<path d="M0 0 C1.98 0 3.96 0 6 0 C6 0.66 6 1.32 6 2 C9.62885324 2.15149298 9.62885324 2.15149298 13 1 C13 4.63 13 8.26 13 12 C14.670625 11.9690625 14.670625 11.9690625 16.375 11.9375 C20 12 20 12 22 13 C22.25398309 17.29057953 22.47398533 21.58223134 22.6875 25.875 C22.76033203 27.09832031 22.83316406 28.32164063 22.90820312 29.58203125 C22.96298828 30.74863281 23.01777344 31.91523437 23.07421875 33.1171875 C23.16062622 34.73536377 23.16062622 34.73536377 23.2487793 36.38623047 C23.16668213 37.24877441 23.08458496 38.11131836 23 39 C22.01 39.66 21.02 40.32 20 41 C18.515 40.505 18.515 40.505 17 40 C17.66 40 18.32 40 19 40 C19.99259618 37.02221146 20.12891582 35.03757049 20.1328125 31.9296875 C20.13410156 30.95128906 20.13539062 29.97289063 20.13671875 28.96484375 C20.13091797 27.43537109 20.13091797 27.43537109 20.125 25.875 C20.12886719 24.84761719 20.13273437 23.82023437 20.13671875 22.76171875 C20.13542969 21.78589844 20.13414063 20.81007813 20.1328125 19.8046875 C20.13168457 18.90733887 20.13055664 18.00999023 20.12939453 17.08544922 C20.23164878 15.01099531 20.23164878 15.01099531 19 14 C16.67182036 13.63239269 14.3381615 13.29758419 12 13 C11.6596875 11.3603125 11.6596875 11.3603125 11.3125 9.6875 C10.33746575 5.95774757 10.33746575 5.95774757 7.75 4.125 C4.81722314 2.92522765 2.14124335 2.36526085 -1 2 C-0.67 1.34 -0.34 0.68 0 0 Z " fill="#DFF4FD" transform="translate(25,3)"/>
<path d="M0 0 C0.66 0 1.32 0 2 0 C2.350625 1.134375 2.70125 2.26875 3.0625 3.4375 C3.80986456 5.38331723 3.80986456 5.38331723 5 7 C8.44874671 8.24285895 8.44874671 8.24285895 12 8 C15.60654039 5.59563974 15.85452932 4.05320393 17 0 C17.66 0 18.32 0 19 0 C19.46485422 3.99774632 19.34488758 5.54353115 16.875 8.8125 C13.64769537 11.26805787 12.03912958 12 8 12 C4.02527937 10.47126129 2.38146335 9.57219503 0 6 C-0.125 2.8125 -0.125 2.8125 0 0 Z " fill="#4883DB" transform="translate(18,21)"/>
<path d="M0 0 C0.5625 1.9375 0.5625 1.9375 1 4 C-1.64540597 6.64540597 -9.37404185 5.18562153 -12.9375 5.1875 C-14.15630859 5.19974609 -15.37511719 5.21199219 -16.63085938 5.22460938 C-18.37399414 5.22750977 -18.37399414 5.22750977 -20.15234375 5.23046875 C-21.7609729 5.23663208 -21.7609729 5.23663208 -23.40209961 5.24291992 C-26 5 -26 5 -28 3 C-18.96278689 2.05757182 -10.07448253 1.88842849 -1 2 C-0.67 1.34 -0.34 0.68 0 0 Z " fill="#C7E1F9" transform="translate(41,37)"/>
<path d="M0 0 C2.4375 2.3125 2.4375 2.3125 4 5 C4 5.99 4 6.98 4 8 C-0.62 8 -5.24 8 -10 8 C-10 3 -10 3 -8.9375 1.1875 C-5.82867965 -0.71790602 -3.55240769 -0.49858354 0 0 Z M-7.8125 2.5 C-8.204375 2.995 -8.59625 3.49 -9 4 C-8.67 4.99 -8.34 5.98 -8 7 C-4.7 7 -1.4 7 2 7 C1.67 6.01 1.34 5.02 1 4 C0.34 4 -0.32 4 -1 4 C-1 3.01 -1 2.02 -1 1 C-4.71736641 0.65099442 -4.71736641 0.65099442 -7.8125 2.5 Z " fill="#D8F4FE" transform="translate(31,8)"/>
<path d="M0 0 C0.33 0 0.66 0 1 0 C1.01458252 0.64026123 1.02916504 1.28052246 1.04418945 1.94018555 C1.11891382 4.85654831 1.21549293 7.77179687 1.3125 10.6875 C1.33505859 11.69490234 1.35761719 12.70230469 1.38085938 13.74023438 C1.5861098 20.86025525 1.5861098 20.86025525 5 27 C3.109375 26.78515625 3.109375 26.78515625 1 26 C-0.046875 23.93359375 -0.046875 23.93359375 -0.75 21.4375 C-0.99234375 20.61121094 -1.2346875 19.78492187 -1.484375 18.93359375 C-1.73960937 17.97646484 -1.73960937 17.97646484 -2 17 C-1.34 17 -0.68 17 0 17 C0 11.39 0 5.78 0 0 Z " fill="#E4F9FE" transform="translate(8,17)"/>
<path d="M0 0 C0.33 0 0.66 0 1 0 C1.25398309 4.29057953 1.47398533 8.58223134 1.6875 12.875 C1.76033203 14.09832031 1.83316406 15.32164063 1.90820312 16.58203125 C1.96298828 17.74863281 2.01777344 18.91523437 2.07421875 20.1171875 C2.13182373 21.19597168 2.18942871 22.27475586 2.2487793 23.38623047 C2.12563354 24.68004639 2.12563354 24.68004639 2 26 C1.01 26.66 0.02 27.32 -1 28 C-1.99 27.67 -2.98 27.34 -4 27 C-3.34 27 -2.68 27 -2 27 C-0.98412022 23.95236066 -0.80195594 21.65281033 -0.68359375 18.45703125 C-0.64169922 17.38388672 -0.59980469 16.31074219 -0.55664062 15.20507812 C-0.49766602 13.52575195 -0.49766602 13.52575195 -0.4375 11.8125 C-0.39431641 10.68134766 -0.35113281 9.55019531 -0.30664062 8.38476562 C-0.20050901 5.58996646 -0.09845615 2.79507838 0 0 Z " fill="#EAFBFE" transform="translate(46,16)"/>
</svg>
